<svg data-v-423bf9ae="" xmlns="http://www.w3.org/2000/svg" viewBox="0 0 667 90" class="iconLeft"><!----><!----><!----><g data-v-423bf9ae="" id="757c0242-23fd-4f7b-a2e7-fb9b00e60264" fill="white" transform="matrix(5.876591554929072,0,0,5.876591554929072,154.0437261740655,-8.44760155230344)"><path d="M1.40 14L3.05 14C3.36 14 3.57 14.01 3.57 13.79C3.57 13.45 3.00 13.58 3.00 12.49L3.00 11.06C3.00 10.82 2.98 10.77 3.42 10.78L5.92 10.78C8.33 10.78 9.44 9.42 9.44 7.39C9.44 5.01 7.87 4.20 6.12 4.20L1.46 4.20C0.94 4.20 0.70 4.17 0.70 4.45C0.70 4.83 1.34 4.56 1.34 5.56L1.34 12.56C1.34 13.61 0.74 13.40 0.74 13.78C0.74 13.99 1.04 14 1.40 14ZM3.23 9.18C2.97 9.18 3.00 9.02 3.00 8.78L3.00 6.37C3.00 5.75 3.01 5.74 3.44 5.74L5.75 5.74C6.94 5.74 7.81 6.24 7.81 7.41C7.81 8.53 7.20 9.18 5.84 9.18ZM10.91 14L12.49 14C12.59 14 12.99 14 12.99 13.80C12.99 13.50 12.47 13.54 12.47 12.80L12.47 5.32C12.47 4.58 12.98 4.63 12.98 4.41C12.98 4.16 12.59 4.20 12.49 4.20L10.95 4.20C10.79 4.20 10.51 4.20 10.51 4.41C10.51 4.66 10.92 4.59 10.92 5.32L10.92 12.80C10.92 13.47 10.42 13.51 10.42 13.75C10.42 13.99 10.61 14 10.91 14ZM18.98 14.20C21.84 14.20 22.93 12.56 23.09 12.15C23.13 12.04 23.13 11.94 23.13 11.84L23.13 10.26C23.13 9.56 23.48 9.81 23.48 9.52C23.48 9.28 23.25 9.28 23.07 9.28L21.66 9.28C21.38 9.28 21.22 9.30 21.22 9.53C21.22 9.83 21.60 9.55 21.60 10.36L21.60 11.34C21.60 11.52 21.59 11.56 21.53 11.68C21.28 12.17 20.29 12.84 19.00 12.84C17.22 12.84 15.60 11.47 15.60 9.11C15.60 6.79 17.23 5.40 18.98 5.40C20.47 5.40 21.01 5.74 21.62 6.15C22.23 6.57 21.99 6.80 22.18 6.93C22.34 7.06 22.50 6.89 22.64 6.66L23.25 5.74C23.35 5.59 23.51 5.35 23.34 5.24C23.09 5.07 22.99 5.36 22.47 5.05C22.26 4.93 21.15 3.99 18.98 3.99C15.86 3.99 13.97 6.26 13.97 9.11C13.97 11.79 15.75 14.20 18.98 14.20ZM29.61 14.20C32.47 14.20 33.56 12.56 33.71 12.15C33.75 12.04 33.75 11.94 33.75 11.84L33.75 10.26C33.75 9.56 34.10 9.81 34.10 9.52C34.10 9.28 33.88 9.28 33.70 9.28L32.28 9.28C32.00 9.28 31.85 9.30 31.85 9.53C31.85 9.83 32.23 9.55 32.23 10.36L32.23 11.34C32.23 11.52 32.21 11.56 32.16 11.68C31.91 12.17 30.91 12.84 29.62 12.84C27.85 12.84 26.22 11.47 26.22 9.11C26.22 6.79 27.86 5.40 29.61 5.40C31.09 5.40 31.64 5.74 32.24 6.15C32.86 6.57 32.62 6.80 32.80 6.93C32.97 7.06 33.12 6.89 33.26 6.66L33.88 5.74C33.98 5.59 34.13 5.35 33.96 5.24C33.71 5.07 33.61 5.36 33.10 5.05C32.89 4.93 31.78 3.99 29.61 3.99C26.49 3.99 24.60 6.26 24.60 9.11C24.60 11.79 26.38 14.20 29.61 14.20ZM37.62 14L39.37 14C39.63 14 39.80 14 39.80 13.79C39.80 13.50 39.35 13.59 39.35 13.08L39.35 10.86C39.35 10.75 39.37 10.60 39.48 10.42L42.50 5.28C42.94 4.54 43.32 4.83 43.32 4.41C43.32 4.20 43.04 4.20 42.87 4.20L40.99 4.20C40.78 4.20 40.63 4.24 40.63 4.41C40.63 4.72 41.09 4.65 40.82 5.08L38.65 8.69C38.58 8.81 38.49 8.82 38.42 8.69L36.29 5.10C35.95 4.54 36.51 4.77 36.51 4.41C36.51 4.21 36.36 4.20 36.13 4.20L34.37 4.20C34.08 4.20 33.82 4.20 33.82 4.41C33.82 4.80 34.13 4.55 34.47 5.12L37.58 10.43C37.65 10.56 37.65 10.65 37.65 10.88L37.65 13.08C37.65 13.57 37.20 13.55 37.20 13.79C37.20 13.99 37.44 14 37.62 14ZM48.68 14L53.40 14C55.30 14 56.20 12.64 56.20 11.07C56.20 9.53 55.27 8.88 54.87 8.69C54.74 8.64 54.75 8.53 54.84 8.46C55.09 8.25 55.57 7.73 55.57 6.75C55.57 5.15 54.39 4.20 52.71 4.20L48.51 4.20C48.13 4.20 47.94 4.23 47.94 4.47C47.94 4.77 48.51 4.61 48.51 5.31L48.51 12.75C48.51 13.58 47.99 13.38 47.99 13.73C47.99 14 48.44 14 48.68 14ZM50.41 8.29C50.18 8.29 50.11 8.18 50.11 7.97L50.13 5.92C50.13 5.67 50.27 5.63 50.47 5.63L52.71 5.63C53.42 5.63 54.01 6.06 54.01 6.90C54.01 7.74 53.40 8.29 52.78 8.29ZM50.37 12.63C50.11 12.63 50.08 12.52 50.08 12.29L50.09 9.90C50.09 9.70 50.23 9.67 50.34 9.67L52.88 9.67C53.70 9.67 54.61 9.95 54.61 11.07C54.61 12.05 53.96 12.63 53.06 12.63ZM57.01 14L58.59 14C59.00 14 59.21 13.97 59.21 13.76C59.21 13.29 58.79 13.62 59.00 12.81L59.12 12.32C59.19 12.17 59.36 12.12 59.50 12.12L62.89 12.12C63.07 12.12 63.18 12.15 63.25 12.35L63.50 13.05C63.67 13.52 63.18 13.36 63.18 13.76C63.18 13.97 63.32 14 63.64 14L65.32 14C65.72 14 65.86 13.97 65.86 13.73C65.86 13.41 65.45 13.51 65.24 12.96L62.24 5.22C62.05 4.73 62.51 4.77 62.51 4.47C62.51 4.27 62.38 4.20 62.16 4.20L60.10 4.20C59.89 4.20 59.77 4.27 59.77 4.47C59.77 4.73 60.13 4.72 59.96 5.22L57.30 12.89C57.09 13.51 56.62 13.38 56.62 13.73C56.62 13.96 56.81 14 57.01 14ZM59.84 10.74C59.67 10.74 59.58 10.65 59.64 10.49L61.00 6.55C61.04 6.43 61.17 6.41 61.22 6.57L62.61 10.43C62.66 10.58 62.64 10.74 62.47 10.74ZM67.07 14L68.71 14C69.08 14 69.23 14.03 69.23 13.80C69.23 13.41 68.64 13.68 68.64 12.80L68.64 8.40C68.64 8.08 68.81 8.01 69.06 8.22L73.96 12.38C74.14 12.56 74.26 12.77 74.26 12.92L74.26 13.66C74.26 13.85 74.33 14 74.52 14L75.84 14C76.02 14 76.27 14 76.27 13.76C76.27 13.40 75.82 13.48 75.82 12.94L75.82 5.54C75.82 4.56 76.33 4.82 76.33 4.47C76.33 4.23 76.05 4.20 75.53 4.20L74.58 4.20C73.98 4.20 73.75 4.20 73.75 4.44C73.75 4.80 74.26 4.52 74.26 5.63L74.26 10.15C74.26 10.47 74.09 10.51 73.91 10.35L68.91 6.05C68.73 5.87 68.63 5.80 68.63 5.54L68.63 4.56C68.63 4.31 68.49 4.20 68.22 4.20L67.23 4.20C66.78 4.20 66.60 4.21 66.60 4.41C66.60 4.72 67.07 4.55 67.09 5.40L67.09 12.77C67.12 13.62 66.56 13.43 66.56 13.80C66.56 14 66.79 14 67.07 14ZM78.34 14L80.14 14C80.60 14 80.77 13.99 80.77 13.80C80.77 13.47 80.19 13.62 80.63 13.03L82.60 10.40C82.80 10.15 82.89 10.23 83.08 10.51L84.66 13.03C85.12 13.76 84.60 13.50 84.60 13.82C84.60 13.97 84.74 14 84.95 14L86.65 14C86.86 14 87.26 13.99 87.26 13.83C87.26 13.51 87.00 13.69 86.51 12.99L84.13 9.14C83.96 8.90 83.93 8.76 84.18 8.43L86.35 5.22C86.83 4.59 87.11 4.72 87.11 4.42C87.11 4.21 86.79 4.20 86.60 4.20L85.12 4.20C84.84 4.20 84.63 4.24 84.63 4.41C84.63 4.72 85.02 4.63 84.83 4.91L80.14 11.38C80.05 11.51 79.88 11.54 79.88 11.31L79.88 5.22C79.88 4.54 80.32 4.68 80.32 4.38C80.32 4.21 80.11 4.20 79.86 4.20L78.32 4.20C78.02 4.20 77.87 4.23 77.87 4.37C77.87 4.70 78.34 4.48 78.34 5.22L78.36 13.13C78.36 13.65 77.95 13.50 77.95 13.78C77.95 13.99 78.16 14 78.34 14Z"></path></g><!----><g data-v-423bf9ae="" id="8b774867-841e-4644-a02d-7afa002b15d3" transform="matrix(1.539355012222929,0,0,1.539355012222929,-7.984620956070842,-31.200218811159445)" stroke="none" fill="white"><path d="M22.852 25.765a.085.085 0 0 0 .027.024c-.015-.017-.026-.028-.027-.024z"></path><path d="M94.927 32.097c-.14.241-.363.582-.681.984-.325.396-.76.844-1.327 1.25-.57.397-1.272.76-2.087.944-.037.009-.076.016-.113.024.105-.397.185-.808.228-1.23.15-1.354-.089-2.8-.544-4.007-.058-.148-.134-.356-.204-.509a7.245 7.245 0 0 0-.833-1.462c-.471-.634-1.129-1.272-2.021-1.649a3.918 3.918 0 0 0-2.837-.087 4.278 4.278 0 0 0-2.073 1.604 4.593 4.593 0 0 0-.804 2.314 4.987 4.987 0 0 0 .388 2.254 6.5 6.5 0 0 0 1.117 1.748l.041.047.02.02.038.039.073.077c.054.054.094.097.158.158.131.12.265.254.394.354.256.208.52.399.793.562.191.116.387.218.584.313a6.79 6.79 0 0 1-.585.441 9.272 9.272 0 0 1-1.468.809c-3.376-8.012-11.471-14.529-23.175-15.859-14.763-1.678-26.033 1.23-33.9 7.232l.015.018c.394.419.819.814 1.241 1.185l2.35 2.022a26.057 26.057 0 0 1 1.76 1.658c.464.489.784.917.969 1.233.105.148.132.286.176.367l.054.129-.078-.116c-.058-.071-.114-.203-.24-.328-.222-.269-.607-.615-1.119-1.025-.52-.404-1.177-.86-1.937-1.38-.763-.52-1.64-1.083-2.572-1.763a18.682 18.682 0 0 1-1.441-1.138l-.363-.358c-.121-.124-.237-.288-.354-.436-.108-.153-.181-.268-.274-.412l-.269-.43c-.313-.502-.605-1.061-.895-1.537-.049.091-.099.18-.148.28-.578 1.215-1.12 2.608-1.702 3.975l-.108.259-.021.048-.004.01-.006.016-.013.033-.051.131-.204.524c-.138.352-.279.705-.378 1.036a15.743 15.743 0 0 0-.562 2.06c-.279 1.385-.334 2.797.078 4.004.208.603.522 1.149.931 1.652.214.251.433.492.69.748l.047.047.023.024.012.012.077.069.05.045.035.024.067.049c.032.03.122.083.18.125.064.044.133.088.205.13 1.14.688 2.39 1.25 3.564 1.725 1.183.472 2.329.853 3.403 1.12 1.074.247 2.08.412 2.958.381.443.002.839-.083 1.207-.166.35-.115.677-.244.915-.442.5-.373.728-.851.856-1.174l.147-.522s-.008.188-.048.549c-.078.344-.209.905-.722 1.415-.242.267-.586.47-.971.661-.393.16-.84.299-1.321.36-.964.154-2.055.107-3.215-.056a22.797 22.797 0 0 1-3.664-.861c-1.272-.417-2.579-.901-3.91-1.623a4.487 4.487 0 0 1-.253-.145c-.091-.057-.158-.09-.269-.168l-.152-.107-.075-.054-.052-.042-.104-.086-.135-.126c-.263-.244-.547-.53-.817-.828a6.718 6.718 0 0 1-1.293-2.157c-.306-.806-.419-1.66-.436-2.491l.002-.621.056-.613c.025-.414.113-.806.182-1.206.165-.79.38-1.554.65-2.314.066-.186.125-.388.197-.561l.035-.085c-2.143-.59-8.046 1.022-10.016.564-4.211-.983-4.773-2.653-1.771 4.917 3.001 7.574 6.616 7.379 8.503 7.359.231-.002.621-.08 1.12-.221-.213 3.117.313 5.879.677 7.922 0 0-.114.879-1.718 2.378-1.605 1.515-2.666 2.271-5.383 2.579 0 0-.76.137-.262 2.05.496 1.93 1.602 5.481 5.482 6.503 3.881 1.022 6.992.526 8.48 1.086 1.489.559 5.331 2.465 6.49 2.694l2.342 1.559c1.404.329-1.301 7.672-1.301 7.672s.59.949 2.652.949c2.065 0 4.498-.066 5.528-1.47 1.036-1.404 2.653-5.529 3.023-5.529.372 0 15.041.223 19.383-1.1 0 0 1.176 2.433 1.029 3.314s-1.617 2.873-1.471 3.243c.147.365 1.765 1.101 4.197.592 2.433-.521 4.718-.668 6.27-4.062 1.551-3.381 2.204-6.042 2.204-6.254 0 0 9.806-9.224 10.397-21.159a21.879 21.879 0 0 0-.272-4.654c.312-.161.737-.394 1.254-.73a14.14 14.14 0 0 0 1.806-1.39 11.04 11.04 0 0 0 1.982-2.357c.252-.403.484-.854.682-1.337.25-.069.492-.149.722-.242a6.65 6.65 0 0 0 2.15-1.373 7.338 7.338 0 0 0 1.196-1.506c.264-.458.437-.833.541-1.092.104-.26.157-.399.157-.399l-.211.37zM27.065 58.294a3.157 3.157 0 0 1-3.152-3.16 3.142 3.142 0 0 1 3.152-3.144 3.142 3.142 0 0 1 3.154 3.144 3.156 3.156 0 0 1-3.154 3.16zm59.809-24.856c-.079.33-.208.628-.36.906-.048.088-.102.17-.156.254a5.58 5.58 0 0 1-.708-.495 5.03 5.03 0 0 1-.517-.494c-.082-.087-.135-.167-.206-.248-.034-.041-.081-.111-.121-.165l-.063-.087-.032-.043-.016-.022c.008.008-.026-.033.014.015l-.006-.009a4.236 4.236 0 0 1-.582-1.266c-.226-.854-.014-1.678.473-2.166.237-.245.532-.395.781-.424a.794.794 0 0 1 .601.154c.172.124.357.344.518.66a4.205 4.205 0 0 1 .306.815c.031.109.039.168.067.284l.046.204.011.051c.009.032-.009-.029-.007-.019l.002.01.002.02.012.079.047.314c.011.205.042.408.03.6.007.388-.055.743-.136 1.072z"></path></g><!----></svg>